<?xml version="1.0" encoding="UTF-8"?><svg id="Layer_2" xmlns="http://www.w3.org/2000/svg" viewBox="0 0 314.57 324.37"><defs><style>.cls-1{fill:#00c7cd;}.cls-2{fill:#ebece6;}.cls-3{fill:#23262b;stroke-width:3px;}.cls-3,.cls-4,.cls-5{stroke:#ebece6;stroke-miterlimit:10;}.cls-6,.cls-4,.cls-5{fill:none;}.cls-7{fill:#ec1e3c;}.cls-4{stroke-width:2px;}.cls-5{stroke-width:5px;}</style></defs><g id="Layer_1-2"><g><rect class="cls-2" x="52.52" y="59.06" width="209.42" height="209.42" transform="translate(161.86 -63.21) rotate(45)"/><path class="cls-4" d="M288.36,154.38c.17,2.73,.27,5.48,.27,8.25,0,51.52-29.83,96.07-73.15,117.34l-25.32,43.4H125.02l-25.27-43.76c-42.93-21.41-72.43-65.75-72.43-116.98,0-2.7,.09-5.37,.25-8.03L2.42,111.01,34.86,54.33l50.09-.04c20.85-14.08,45.98-22.3,73.03-22.3s52.29,8.26,73.17,22.4l49.62,.11,32.64,56.5-25.05,43.39Z"/><path class="cls-3" d="M287.68,170.49c.17-2.73,.27-5.48,.27-8.25,0-51.52-29.83-96.07-73.15-117.34L189.47,1.5H124.34l-25.27,43.76C56.14,66.67,26.64,111.01,26.64,162.24c0,2.7,.09,5.37,.25,8.03L1.73,213.86l32.44,56.68,50.09,.04c20.85,14.08,45.98,22.3,73.03,22.3s52.29-8.26,73.17-22.4l49.62-.11,32.64-56.5-25.05-43.39Z"/><g><path class="cls-6" d="M174.72,65.46c-6.01-1.12-12.21-1.71-18.55-1.71-5.68,0-11.24,.48-16.67,1.38l-37.83,65.53-39.72,68.8c3.71,9.95,8.96,19.15,15.45,27.32l79.81,.07,77.82-.17c6.93-8.75,12.43-18.68,16.16-29.44l-38.41-66.52-38.07-65.26Z"/><path class="cls-6" d="M132.42,262.01c7.62,1.84,15.57,2.83,23.75,2.83s16.22-.99,23.87-2.86l-22.83,.05-24.79-.02Z"/><path class="cls-6" d="M78.46,100.5c-6.95,8.45-12.54,18.06-16.45,28.5l9.2-15.93,7.25-12.56Z"/><polygon class="cls-2" points="15.15 210.15 29.08 234.49 29.76 234.1 15.61 209.36 15.15 210.15"/><path class="cls-2" d="M298.23,209.21l-14.3,24.75,1.21,.69,14.14-24.48-23.79-41.2c-.02,.26-.02,.53-.04,.79l22.77,39.45Z"/><path class="cls-2" d="M209.9,55.95l-23.23-39.82h-.49l23.02,39.46c.24,.12,.47,.24,.71,.36Z"/><path class="cls-2" d="M223.45,260.67c-.62,.42-1.25,.82-1.88,1.22l47.89-.11,13.38-23.16-1.21-.69-13.08,22.64-45.11,.1Z"/><path class="cls-2" d="M45,260.72l-12.95-22.63-.68,.39,13.42,23.45,47.62,.04c-.63-.41-1.26-.8-1.88-1.22l-45.54-.04Z"/><path class="cls-2" d="M156.17,264.84c-8.18,0-16.14-.98-23.75-2.83l-40.01-.04c18.58,12.04,40.72,19.06,64.51,19.06s46.04-7.04,64.64-19.14l-41.53,.09c-7.65,1.86-15.64,2.86-23.87,2.86Z"/><path class="cls-2" d="M78.46,100.5L127.17,16.13h-.2l-22.97,39.78c-39.03,19.46-65.84,59.77-65.84,106.35,0,2.45,.08,4.88,.23,7.3l-22.88,39.63,.1,.17,46.4-80.37c3.91-10.43,9.5-20.04,16.45-28.5Z"/><path class="cls-2" d="M257.71,143.79c-3.91-10.43-16.34-33.88-22.55-42.64L186.45,16.78l1.1-.65,22.97,39.78c39.03,19.46,65.84,59.77,65.84,106.35,0,2.45-.08,4.88-.23,7.3l22.88,39.63"/><path class="cls-2" d="M38.63,227.83c0-3.69,2.99-6.68,6.68-6.68,1.64,0,3.13,.59,4.29,1.57l10-5.73,1.01,1.76-4.88-8.52,6.21-10.76c-4.09-10.95-6.33-22.79-6.33-35.16s2.26-24.32,6.38-35.3L15.61,209.36l14.16,24.73,8.97-5.14c-.06-.36-.1-.74-.1-1.12Z"/><path class="cls-2" d="M139.51,65.13l7.98-13.81h7.44v-11.32c-2.55-.94-4.38-3.39-4.38-6.27s1.83-5.33,4.38-6.27v-11.34h-27.75l-48.71,84.37c15.1-18.37,36.58-31.28,61.05-35.37Z"/><path class="cls-2" d="M163.9,33.73c0,2.88-1.83,5.33-4.38,6.27v11.32h6.95l8.25,14.15c46.67,8.7,82,49.64,82,98.83,0,11.54-1.95,22.62-5.53,32.95l7.46,12.92-4.03,6.98,9.72,5.57c1.16-.98,2.66-1.57,4.29-1.57,3.69,0,6.68,2.99,6.68,6.68,0,.38-.04,.75-.1,1.12l8.72,5,14.3-24.75-22.77-39.45c.02-.26,.02-.53,.04-.79l-32.28-55.9-33.32-57.12c-.24-.12-.47-.25-.71-.36l-23.02-39.46h-26.66v11.34c2.55,.94,4.38,3.39,4.38,6.27Z"/><path class="cls-2" d="M268.64,234.51c-3.69,0-6.68-2.99-6.68-6.68,0-.38,.04-.75,.1-1.12l-9.74-5.58-3.19,5.52-14.1,.03c-13.68,17.27-32.91,29.93-54.99,35.31l41.53-.09c.63-.41,1.26-.8,1.88-1.22l45.11-.1,13.08-22.64-8.7-4.99c-1.16,.98-2.66,1.57-4.29,1.57Z"/><path class="cls-2" d="M77.4,226.78h-12.19s-3.31-5.8-3.31-5.8l-10,5.73c.06,.36,.1,.74,.1,1.12,0,3.69-2.99,6.68-6.68,6.68-1.64,0-3.13-.59-4.29-1.57l-8.97,5.14,12.95,22.63,45.54,.04c.62,.42,1.25,.81,1.88,1.22l40.01,.04c-22.09-5.35-41.33-17.99-55.02-35.24Z"/></g><circle class="cls-5" cx="157.22" cy="164.3" r="86.63"/><g><path class="cls-1" d="M107.8,154.35c-1.3,0-2.34,1.05-2.34,2.34v14.26c0,1.3,1.05,2.34,2.34,2.34h37.24c2.8,0,5.07,2.27,5.07,5.07v37.24c0,1.3,1.05,2.34,2.34,2.34h14.26c1.3,0,2.34-1.05,2.34-2.34v-35.67c-9.99-9.99-15.59-15.59-25.58-25.58h-35.67Z"/><path class="cls-1" d="M106.86,179.85c-.78,0-1.4,.63-1.4,1.4v8.54c0,.78,.63,1.4,1.4,1.4h22.31c1.68,0,3.03,1.36,3.03,3.03v22.31c0,.78,.63,1.4,1.4,1.4h8.54c.78,0,1.4-.63,1.4-1.4v-21.37c-5.98-5.98-9.34-9.34-15.32-15.32h-21.37Z"/><path class="cls-7" d="M211.24,154.25h-37.24c-2.8,0-5.07-2.27-5.07-5.07v-37.24c0-1.3-1.05-2.34-2.34-2.34h-14.26c-1.3,0-2.34,1.05-2.34,2.34v35.67c9.99,9.99,15.59,15.59,25.58,25.58h35.67c1.3,0,2.34-1.05,2.34-2.34v-14.26c0-1.3-1.05-2.34-2.34-2.34Z"/><path class="cls-7" d="M212.11,137.58h-23.33c-1.75,0-3.17-1.42-3.17-3.17v-23.33c0-.81-.66-1.47-1.47-1.47h-8.93c-.81,0-1.47,.66-1.47,1.47v22.35c6.26,6.26,9.77,9.77,16.03,16.03h22.35c.81,0,1.47-.66,1.47-1.47v-8.93c0-.81-.66-1.47-1.47-1.47Z"/></g><g><polygon class="cls-2" points="230.79 199.76 227.58 199.76 223.06 199.76 221.3 202.84 223.49 206.63 225.07 209.36 226.88 212.5 229.45 216.96 232.45 222.15 235.98 222.15 239.5 216.12 241.61 212.49 243.47 209.28 247.19 202.84 245.42 199.78 239.69 199.76 234.24 199.75 230.79 199.76"/><polygon class="cls-2" points="82.63 199.76 79.59 199.75 74.13 199.76 68.41 199.76 66.65 202.84 70.58 209.65 72.23 212.5 74.54 216.5 77.8 222.15 81.33 222.15 84.36 216.95 86.96 212.49 88.58 209.69 90.15 206.97 92.53 202.84 90.76 199.78 85.84 199.77 82.63 199.76"/><polygon class="cls-2" points="145.72 64.87 143.96 67.94 146.32 72.02 149.55 77.61 150.63 79.48 152.21 82.22 155.11 87.26 158.64 87.26 161.56 82.25 163.16 79.51 164.28 77.6 167.5 72.02 169.85 67.95 168.08 64.88 160.86 64.87 156.91 64.86 152.96 64.86 145.72 64.87"/><polygon class="cls-2" points="169.85 67.95 168.08 64.88 156.91 64.86 145.72 64.87 143.96 67.94 149.55 77.61 155.11 87.26 158.64 87.26 164.28 77.6 169.85 67.95"/><polygon class="cls-2" points="247.19 202.84 245.42 199.78 234.24 199.75 223.06 199.76 221.3 202.84 226.88 212.5 232.45 222.15 235.98 222.15 241.61 212.49 247.19 202.84"/></g></g></g></svg>